<svg viewBox="0 0 1280 360" xmlns="http://www.w3.org/2000/svg" role="img" aria-label="swrming — distributed inference network">
  <title>swrming — distributed inference network</title>
  <rect width="1280" height="360" fill="#FAFAF7"/>
  <g fill="none" stroke="#0E0E10" stroke-linejoin="round" stroke-linecap="round" transform="translate(140,80)">
    <polygon points="160,100 130,48.04 70,48.04 40,100 70,151.96 130,151.96" stroke-width="2.4"/>
    <g stroke-width="1.2" opacity="0.3">
      <line x1="100" y1="100" x2="160" y2="100"/>
      <line x1="100" y1="100" x2="130" y2="48.04"/>
      <line x1="100" y1="100" x2="70" y2="48.04"/>
      <line x1="100" y1="100" x2="40" y2="100"/>
      <line x1="100" y1="100" x2="70" y2="151.96"/>
      <line x1="100" y1="100" x2="130" y2="151.96"/>
    </g>
  </g>
  <g fill="#0E0E10" transform="translate(140,80)">
    <circle cx="160" cy="100" r="8"/>
    <circle cx="130" cy="48.04" r="8"/>
    <circle cx="70" cy="48.04" r="8"/>
    <circle cx="40" cy="100" r="8"/>
    <circle cx="70" cy="151.96" r="8"/>
    <circle cx="130" cy="151.96" r="8"/>
    <circle cx="100" cy="100" r="10.5"/>
  </g>
  <!-- WORDMARK:BEGIN -->
<g data-wordmark="swrming">
<path d="M277.7498779296875 -14Q183.899658203125 -14 121.72467041015625 28.0Q59.5496826171875 70 46.19970703125 154.6495361328125L142.2510986328125 178Q149.60107421875 136.700439453125 168.90087890625 113.02569580078125Q188.20068359375 89.3509521484375 216.5504150390625 79.27606201171875Q244.900146484375 69.201171875 277.7498779296875 69.201171875Q327.3494873046875 69.201171875 353.77410888671875 87.8509521484375Q380.19873046875 106.500732421875 380.19873046875 136.500244140625Q380.19873046875 166.8497314453125 355.12408447265625 180.92462158203125Q330.0494384765625 194.99951171875 281.499755859375 203.699462890625L247.2001953125 209.7493896484375Q197.300048828125 219.0494384765625 156.39990234375 236.199462890625Q115.499755859375 253.3494873046875 91.07464599609375 283.299560546875Q66.6495361328125 313.2496337890625 66.6495361328125 359.7998046875Q66.6495361328125 429.9500732421875 119.07464599609375 468.22515869140625Q171.499755859375 506.500244140625 257.39990234375 506.500244140625Q340.39990234375 506.500244140625 393.82501220703125 469.32525634765625Q447.2501220703125 432.1502685546875 462.8502197265625 368.300537109375L367.19873046875 340.699951171875Q358.498779296875 385.699462890625 329.4490966796875 404.499267578125Q300.3994140625 423.299072265625 257.39990234375 423.299072265625Q214.7503662109375 423.299072265625 190.8507080078125 407.82427978515625Q166.9510498046875 392.3494873046875 166.9510498046875 363.699951171875Q166.9510498046875 334.100341796875 190.4508056640625 320.1505126953125Q213.9505615234375 306.20068359375 254.2501220703125 299.1507568359375L288.5496826171875 293.100830078125Q342.4498291015625 283.80078125 386.02496337890625 267.6507568359375Q429.60009765625 251.500732421875 455.0501708984375 221.87567138671875Q480.500244140625 192.2506103515625 480.500244140625 142.3504638671875Q480.500244140625 67.500244140625 425.57513427734375 26.7501220703125Q370.6500244140625 -14 277.7498779296875 -14Z" transform="translate(380.00,155) scale(0.120000,-0.120000)" fill="#0E0E10"/>
<path d="M130.298583984375 0 46.299560546875 492.500244140625H149.2510986328125L211.4498291015625 69.2510986328125H227.3499755859375L312.698486328125 492.500244140625H479.700927734375L565.0494384765625 69.2510986328125H580.9495849609375L643.1483154296875 492.500244140625H746.099853515625L662.100830078125 0H489.498291015625L404.1497802734375 423.2491455078125H388.2496337890625L302.901123046875 0Z" transform="translate(440.00,155) scale(0.120000,-0.120000)" fill="#0E0E10"/>
<path d="M76.299560546875 0V492.500244140625H177.201171875V434.7503662109375H193.101318359375Q205.1512451171875 465.80029296875 231.3511962890625 480.1502685546875Q257.5511474609375 494.500244140625 296.80078125 494.500244140625H355.7508544921875V402.098876953125H293.0509033203125Q242.60107421875 402.098876953125 210.901123046875 374.67401123046875Q179.201171875 347.2491455078125 179.201171875 289.699462890625V0Z" transform="translate(532.04,155) scale(0.120000,-0.120000)" fill="#0E0E10"/>
<path d="M76.299560546875 0V492.500244140625H177.201171875V435.00048828125H193.101318359375Q206.80126953125 460.700439453125 237.8511962890625 480.9503173828125Q268.901123046875 501.2001953125 322.100830078125 501.2001953125Q377.20068359375 501.2001953125 410.77557373046875 478.42535400390625Q444.3504638671875 455.6505126953125 461.00048828125 420.900634765625H476.900634765625Q493.900634765625 455.00048828125 526.6505126953125 478.100341796875Q559.400390625 501.2001953125 619.2001953125 501.2001953125Q666.60009765625 501.2001953125 703.9251098632812 481.3502197265625Q741.2501220703125 461.500244140625 763.2251586914062 423.0501708984375Q785.2001953125 384.60009765625 785.2001953125 328.4498291015625V0H682.298583984375V320.499755859375Q682.298583984375 365.3494873046875 657.6238403320312 389.69921875Q632.9490966796875 414.0489501953125 588.299560546875 414.0489501953125Q540.0499267578125 414.0489501953125 511.12530517578125 383.0491943359375Q482.20068359375 352.0494384765625 482.20068359375 293.699951171875V0H379.299072265625V320.499755859375Q379.299072265625 365.3494873046875 354.62432861328125 389.69921875Q329.9495849609375 414.0489501953125 285.300048828125 414.0489501953125Q237.0504150390625 414.0489501953125 208.12579345703125 383.0491943359375Q179.201171875 352.0494384765625 179.201171875 293.699951171875V0Z" transform="translate(575.48,155) scale(0.120000,-0.120000)" fill="#0E0E10"/>
<path d="M76.299560546875 0V492.500244140625H179.201171875V0ZM127.7503662109375 559.599609375Q97.9500732421875 559.599609375 77.42486572265625 579.1497802734375Q56.899658203125 598.699951171875 56.899658203125 629.80029296875Q56.899658203125 661.2506103515625 77.42486572265625 680.6257934570312Q97.9500732421875 700.0009765625 127.7503662109375 700.0009765625Q158.5506591796875 700.0009765625 178.57586669921875 680.6257934570312Q198.60107421875 661.2506103515625 198.60107421875 629.80029296875Q198.60107421875 598.699951171875 178.57586669921875 579.1497802734375Q158.5506591796875 559.599609375 127.7503662109375 559.599609375Z" transform="translate(675.32,155) scale(0.120000,-0.120000)" fill="#0E0E10"/>
<path d="M76.299560546875 0V492.500244140625H177.201171875V418.7508544921875H193.101318359375Q207.201171875 449.300537109375 243.0009765625 475.2503662109375Q278.80078125 501.2001953125 349.6505126953125 501.2001953125Q405.900634765625 501.2001953125 449.57562255859375 476.27508544921875Q493.2506103515625 451.3499755859375 518.1255493164062 405.5499267578125Q543.00048828125 359.7498779296875 543.00048828125 296V0H440.098876953125V288.099853515625Q440.098876953125 352.499267578125 408.22418212890625 382.9490966796875Q376.3494873046875 413.39892578125 319.7498779296875 413.39892578125Q255.80029296875 413.39892578125 217.500732421875 371.0491943359375Q179.201171875 328.699462890625 179.201171875 248.8502197265625V0Z" transform="translate(703.04,155) scale(0.120000,-0.120000)" fill="#0E0E10"/>
<path d="M52.299560546875 244.2501220703125V258.8502197265625Q52.299560546875 336.500244140625 83.47454833984375 391.82525634765625Q114.6495361328125 447.1502685546875 166.67449951171875 476.82525634765625Q218.699462890625 506.500244140625 281.099365234375 506.500244140625Q353.299072265625 506.500244140625 391.62384033203125 479.87542724609375Q429.9486083984375 453.2506103515625 447.698486328125 422.3509521484375H463.5986328125V492.500244140625H563.80029296875V-100.59912109375Q563.80029296875 -146.3494873046875 537.6500244140625 -173.17474365234375Q511.499755859375 -200 465.3494873046875 -200H133.3494873046875V-109.5986328125H432.5487060546875Q461.5986328125 -109.5986328125 461.5986328125 -79.5986328125V77.3994140625H445.698486328125Q434.6485595703125 58.599609375 414.72369384765625 39.82476806640625Q394.798828125 21.0499267578125 362.3489990234375 8.82501220703125Q329.899169921875 -3.39990234375 281.099365234375 -3.39990234375Q218.699462890625 -3.39990234375 166.49951171875 26.27508544921875Q114.299560546875 55.9500732421875 83.299560546875 111.4500732421875Q52.299560546875 166.9500732421875 52.299560546875 244.2501220703125ZM309.39990234375 87.00146484375Q376.1492919921875 87.00146484375 419.52398681640625 129.2510986328125Q462.898681640625 171.500732421875 462.898681640625 246.900146484375V256.2001953125Q462.898681640625 332.599609375 419.8489990234375 374.3492431640625Q376.79931640625 416.098876953125 309.39990234375 416.098876953125Q243.00048828125 416.098876953125 199.4508056640625 374.3492431640625Q155.901123046875 332.599609375 155.901123046875 256.2001953125V246.900146484375Q155.901123046875 171.500732421875 199.4508056640625 129.2510986328125Q243.00048828125 87.00146484375 309.39990234375 87.00146484375Z" transform="translate(773.84,155) scale(0.120000,-0.120000)" fill="#0E0E10"/>
</g>
<!-- WORDMARK:END -->
  <text x="380" y="210" fill="#2A2B30"
        font-family="'Inter',system-ui,sans-serif"
        font-size="22" font-weight="400" letter-spacing="-0.3">Distributed inference. Every GPU is a node in the swarm.</text>
  <text x="380" y="260" fill="#6B6F78"
        font-family="'JetBrains Mono','IBM Plex Mono',ui-monospace,monospace"
        font-size="12" letter-spacing="3">RUST · LIBP2P · OPEN WEIGHTS · OPEN HARDWARE · OPEN NETWORK</text>
</svg>
